<?xml version="1.0" standalone="no"?>
<!DOCTYPE svg PUBLIC "-//W3C//DTD SVG 20010904//EN"
 "http://www.w3.org/TR/2001/REC-SVG-20010904/DTD/svg10.dtd">
<svg version="1.0" xmlns="http://www.w3.org/2000/svg"
 width="512.000000pt" height="512.000000pt" viewBox="0 0 512.000000 512.000000"
 preserveAspectRatio="xMidYMid meet">

<g transform="translate(0.000000,512.000000) scale(0.100000,-0.100000)"
fill="#FFFFFF" stroke="none">
<path d="M681 4784 c-253 -68 -410 -331 -346 -579 67 -256 329 -415 580 -350
87 23 167 70 228 134 29 31 58 64 63 74 9 16 122 -46 1030 -564 560 -320 1023
-585 1027 -589 5 -4 -4 -48 -20 -99 l-28 -91 -980 0 -980 0 -33 64 c-60 115
-177 207 -309 241 -341 89 -667 -238 -578 -580 67 -256 329 -415 578 -350 132
34 249 126 309 241 l33 64 980 0 980 0 28 -91 c16 -51 25 -95 20 -99 -4 -4
-467 -269 -1027 -589 -908 -518 -1021 -580 -1030 -564 -5 10 -34 43 -63 74
-61 64 -141 111 -228 134 -251 65 -513 -94 -580 -350 -89 -343 237 -669 580
-580 139 37 260 137 316 262 16 37 35 78 42 91 8 15 372 229 1105 647 l1094
625 36 -30 c261 -208 644 -225 924 -41 175 114 288 273 346 486 23 82 23 288
0 370 -58 213 -171 372 -345 485 -282 185 -663 168 -925 -40 l-36 -30 -1094
625 c-733 418 -1097 632 -1105 647 -7 13 -26 54 -42 91 -91 204 -334 319 -550
261z m182 -318 c103 -43 128 -177 48 -257 -112 -113 -296 -12 -267 146 18 94
128 150 219 111z m3252 -1441 c237 -62 393 -291 358 -529 -28 -194 -168 -351
-358 -401 -251 -65 -513 94 -580 350 -89 343 237 669 580 580z m-3252 -319
c103 -43 128 -177 48 -257 -65 -65 -157 -65 -222 0 -124 123 13 325 174 257z
m0 -1760 c103 -43 128 -177 48 -257 -65 -65 -157 -65 -222 0 -124 123 13 325
174 257z"/>
</g>
</svg>
